<?xml version="1.0" standalone="no"?>
<!DOCTYPE svg PUBLIC "-//W3C//DTD SVG 20010904//EN"
 "http://www.w3.org/TR/2001/REC-SVG-20010904/DTD/svg10.dtd">
<svg version="1.0" xmlns="http://www.w3.org/2000/svg"
 width="557.000000pt" height="448.000000pt" viewBox="0 0 557.000000 448.000000"
 preserveAspectRatio="xMidYMid meet">

<g transform="translate(0.000000,448.000000) scale(0.100000,-0.100000)"
fill="#000000" stroke="none">
<path d="M2654 4340 c-5 -5 -32 -13 -59 -16 -28 -4 -57 -13 -65 -20 -8 -7 -33
-14 -55 -16 -33 -2 -41 -7 -43 -26 -2 -13 -11 -26 -20 -29 -37 -14 -94 -58
-106 -82 -24 -48 -19 -141 7 -141 8 0 12 -16 12 -42 0 -23 5 -43 12 -45 6 -2
9 -12 6 -22 -2 -10 3 -25 11 -34 9 -9 12 -18 8 -21 -14 -9 -13 -81 3 -132 8
-27 15 -58 15 -69 0 -12 9 -39 21 -60 11 -22 23 -64 26 -92 6 -53 18 -63 58
-53 6 2 19 3 30 4 11 1 25 4 31 8 7 4 17 1 24 -7 13 -16 35 -21 25 -6 -3 5 -1
12 5 16 5 3 10 -3 10 -14 0 -26 -35 -29 -45 -3 -6 16 -7 16 -20 -2 -12 -15
-17 -17 -29 -7 -9 8 -16 8 -20 2 -4 -6 -20 -8 -36 -4 -28 5 -30 4 -30 -26 0
-17 -11 -74 -25 -127 -29 -113 -29 -114 -10 -114 22 0 18 -18 -4 -25 -22 -7
-26 -17 -36 -85 -4 -25 -14 -70 -22 -100 -8 -30 -19 -71 -23 -90 -5 -19 -16
-52 -24 -72 -17 -39 -15 -42 37 -68 33 -17 35 -30 3 -30 -31 0 -43 -30 -19
-48 17 -13 17 -14 -3 -8 -17 5 -23 0 -31 -26 -6 -18 -23 -64 -38 -103 -54
-140 -64 -171 -68 -211 -5 -41 -25 -84 -39 -84 -5 0 -8 -4 -8 -10 0 -5 -11
-21 -25 -34 -21 -21 -24 -30 -15 -45 14 -27 13 -31 -10 -31 -14 0 -18 5 -13
17 4 10 -9 4 -36 -17 -25 -20 -40 -39 -36 -48 3 -7 5 -18 5 -23 0 -6 14 -7 34
-4 22 5 36 3 41 -6 5 -8 4 -10 -4 -5 -6 4 -25 5 -41 1 -25 -5 -30 -12 -30 -35
0 -25 -13 -65 -40 -125 -5 -11 -11 -51 -13 -90 -2 -46 -11 -86 -26 -117 -15
-30 -20 -54 -16 -65 5 -10 9 -25 9 -33 1 -9 17 -18 41 -23 50 -10 50 -10 110
2 78 15 82 17 88 70 4 32 18 67 45 107 21 32 44 69 51 82 9 16 21 22 45 22 44
0 62 20 45 52 -11 22 -11 22 7 7 10 -9 26 -14 34 -11 11 3 9 -2 -5 -18 -51
-59 -65 -73 -59 -57 5 14 0 17 -25 17 -25 0 -31 -4 -31 -21 0 -11 -7 -27 -15
-35 -16 -17 -18 -94 -2 -94 5 0 16 8 23 18 7 9 14 12 14 6 0 -6 -7 -17 -15
-24 -13 -11 -13 -15 0 -41 8 -15 15 -35 15 -44 0 -18 -17 -20 -23 -2 -3 9 -10
9 -31 -3 -17 -9 -23 -16 -14 -18 41 -11 41 -12 19 -33 -13 -12 -30 -19 -41
-16 -16 4 -17 1 -9 -20 13 -35 11 -38 -11 -18 -11 10 -20 15 -20 11 0 -4 -9
-2 -20 4 -11 6 -19 16 -17 23 3 14 -42 22 -55 9 -6 -6 -4 -14 4 -23 35 -37 49
-119 27 -161 -9 -18 -8 -19 10 -13 12 3 31 7 44 9 27 3 117 47 117 57 0 18 31
15 64 -7 20 -14 36 -20 36 -15 0 5 -6 12 -12 15 -10 5 -10 7 0 12 7 3 17 17
22 30 11 29 34 33 25 4 -3 -11 -2 -20 4 -20 6 0 7 -14 4 -34 -5 -31 -2 -37 28
-55 30 -18 31 -21 12 -21 -13 0 -23 5 -23 11 0 5 -4 8 -9 5 -4 -3 -22 -1 -40
4 -27 7 -30 7 -23 -8 11 -21 17 -87 16 -167 -1 -58 -19 -128 -48 -183 -13 -25
-12 -28 15 -44 23 -14 29 -25 29 -52 0 -28 4 -35 21 -38 12 -2 28 -14 36 -28
13 -22 13 -23 0 -8 -18 22 -53 23 -61 2 -11 -30 -6 -44 17 -44 19 -1 20 -2 7
-13 -20 -15 -41 -102 -28 -115 6 -6 8 -37 6 -70 -2 -45 0 -58 10 -55 7 3 20
-1 30 -10 20 -18 58 -24 91 -13 14 5 27 4 35 -4 8 -8 7 -10 -6 -5 -9 4 -24 2
-34 -3 -21 -11 -84 2 -95 20 -21 33 -79 -50 -79 -112 0 -20 -7 -45 -15 -57 -8
-12 -13 -27 -10 -35 3 -7 -6 -29 -20 -48 -46 -62 -30 -94 28 -55 20 14 47 25
61 25 14 0 28 5 31 10 3 6 16 10 28 10 13 0 29 9 37 20 16 22 45 26 54 8 5
-11 7 -11 12 0 8 17 24 15 24 -3 0 -20 39 -26 188 -24 40 0 65 -7 97 -26 24
-14 50 -24 57 -23 7 2 12 -3 11 -9 -2 -7 2 -13 7 -13 6 0 10 5 10 12 0 9 3 9
12 0 6 -6 18 -8 27 -3 9 5 33 12 55 15 21 4 49 18 63 32 13 13 30 24 38 24 8
0 15 6 15 13 0 13 103 57 133 57 19 0 18 21 -2 73 -6 15 -12 42 -15 60 -7 51
-18 101 -28 119 -9 19 -53 24 -63 8 -3 -5 -16 -10 -28 -9 -21 1 -21 1 -2 9 11
4 30 10 43 15 12 4 22 14 22 22 0 8 10 36 23 62 13 25 29 65 36 87 8 23 23 47
35 54 38 22 66 67 73 122 8 53 8 53 51 62 25 6 42 15 42 24 0 11 10 13 45 8
43 -7 45 -6 45 18 0 13 3 32 6 40 8 21 -56 49 -90 40 -13 -3 -27 -1 -30 4 -3
6 2 8 13 5 23 -6 38 14 22 30 -6 6 -11 17 -11 23 0 16 -58 104 -68 104 -4 0
-15 15 -23 33 -42 84 -41 80 -23 122 10 22 18 64 18 93 1 49 4 55 41 87 22 18
52 36 66 39 18 3 32 17 44 43 9 21 26 56 36 79 22 47 23 64 7 99 -12 26 -21
29 -77 26 -27 -2 -33 0 -28 13 9 23 -2 46 -22 46 -22 0 -41 19 -41 42 0 9 -16
33 -36 53 -34 34 -35 38 -29 86 5 38 4 49 -7 49 -19 0 -117 106 -124 135 -7
29 -12 30 -38 10 -11 -8 -27 -15 -35 -15 -9 0 2 10 24 21 36 20 47 21 100 12
46 -8 68 -7 92 4 18 7 66 13 106 13 90 0 107 13 107 83 0 35 4 47 15 47 18 0
38 37 31 56 -3 8 -1 25 5 38 9 18 7 31 -6 57 -22 41 -64 84 -92 93 -24 8 -30
26 -25 74 3 20 10 32 19 32 23 0 9 24 -18 31 -23 7 -23 7 -2 8 12 1 25 -3 28
-9 13 -21 55 -11 65 15 5 14 16 25 25 25 19 0 19 9 0 34 -18 23 -20 87 -4 103
7 7 8 17 3 25 -15 23 -13 220 2 251 12 25 11 31 -1 44 -8 8 -15 21 -15 29 0
14 -7 24 -38 59 -8 9 -23 13 -36 9 -16 -4 -33 4 -59 27 -20 18 -37 36 -37 41
0 4 16 -8 36 -27 40 -39 49 -42 70 -20 10 9 25 12 45 8 36 -7 69 18 69 53 0
12 11 35 24 51 13 15 26 38 30 51 7 20 13 24 57 27 9 0 24 7 33 14 9 7 16 11
16 8 0 -3 11 4 25 17 14 13 25 28 25 35 0 6 6 11 14 11 8 0 13 8 12 18 0 10 6
16 17 16 9 -1 17 4 17 12 0 8 5 14 10 14 6 0 10 10 10 22 0 11 11 36 25 54 30
39 30 38 8 65 -35 40 -105 62 -145 44 -46 -19 -57 17 -38 115 5 27 5 49 -1 54
-5 6 -9 22 -9 37 0 34 -16 45 -38 27 -16 -13 -26 -15 -73 -10 -9 1 -19 11 -22
22 -7 26 -24 26 -32 0 -5 -17 -15 -19 -82 -19 -50 0 -84 6 -97 15 -36 25 -49
18 -43 -21 4 -23 1 -40 -9 -49 -8 -8 -14 -23 -14 -33 0 -14 -2 -15 -9 -4 -7
10 -13 11 -31 1 -12 -6 -28 -9 -35 -6 -7 2 -21 -4 -31 -15 -23 -25 -33 -24
-44 6 -6 16 -14 23 -25 19 -8 -3 -15 -10 -15 -15 0 -5 -16 -9 -36 -9 -31 0
-36 3 -31 19 8 32 -60 42 -109 16 -37 -19 -68 -20 -61 -1 8 21 -48 -9 -71 -39
-16 -20 -24 -23 -48 -16 -16 4 -34 6 -39 4 -6 -2 -11 7 -12 19 -1 12 -9 26
-18 30 -28 17 -18 64 25 109 44 46 44 61 0 52 -28 -5 -30 -4 -30 26 0 23 -5
31 -18 31 -10 0 -22 -4 -28 -10z m679 -260 c3 -11 1 -18 -4 -14 -5 3 -9 12 -9
20 0 20 7 17 13 -6z m-723 -37 c-19 -3 -39 -9 -44 -14 -6 -5 -15 -9 -20 -9 -6
0 -2 7 8 15 11 8 36 14 55 13 l36 -1 -35 -4z m-80 -37 c0 -8 -4 -18 -10 -21
-5 -3 -10 3 -10 14 0 12 5 21 10 21 6 0 10 -6 10 -14z m776 -32 c-8 -21 -15
-34 -15 -28 -1 15 20 76 25 71 2 -2 -2 -21 -10 -43z m-542 24 c-5 -8 -1 -9 12
-4 14 5 16 4 7 -5 -13 -13 -37 -3 -28 12 4 5 8 9 11 9 3 0 2 -5 -2 -12z m62
-44 c1 -37 1 -38 -3 -4 -3 19 -10 39 -16 43 -8 6 -7 7 3 4 10 -2 15 -17 16
-43z m-316 -16 c0 -8 -91 1 -100 9 -2 2 19 3 48 1 28 -2 52 -6 52 -10z m-125
-8 c-3 -5 -11 -10 -16 -10 -6 0 -7 5 -4 10 3 6 11 10 16 10 6 0 7 -4 4 -10z
m482 -16 c-3 -3 -12 -4 -19 -1 -8 3 -5 6 6 6 11 1 17 -2 13 -5z m83 -9 c0 -8
-5 -15 -11 -15 -5 0 -8 4 -4 9 3 5 -3 12 -12 14 -14 4 -13 5 5 6 13 1 22 -5
22 -14z m-45 -59 c-38 -36 -45 -33 -10 4 16 16 30 28 33 25 2 -2 -8 -15 -23
-29z m395 24 c0 -5 -7 -10 -15 -10 -8 0 -15 -8 -15 -19 0 -10 -11 -26 -25 -35
-14 -9 -25 -12 -25 -7 0 5 9 13 20 16 11 3 20 15 20 25 0 11 8 24 18 29 22 13
22 13 22 1z m-847 -92 c30 -22 32 -29 15 -46 -9 -9 -6 -12 14 -12 15 0 30 5
33 10 3 6 11 10 18 10 6 0 2 -7 -9 -15 -26 -19 -74 -20 -74 0 0 8 5 15 10 15
6 0 10 5 10 10 0 6 -6 10 -14 10 -8 0 -16 7 -20 15 -3 8 -14 15 -25 15 -11 0
-23 5 -27 11 -9 16 34 1 69 -23z m408 -11 c-6 -6 -11 -19 -11 -28 0 -9 -6 -22
-14 -28 -10 -9 -8 4 7 44 12 30 24 48 25 39 2 -9 -1 -21 -7 -27z m-146 -4
c-11 -3 -26 -10 -32 -15 -9 -7 -13 -7 -13 0 0 13 18 21 45 20 l20 0 -20 -5z
m58 -53 c-6 -6 -33 30 -33 43 0 5 9 -1 19 -14 11 -13 17 -26 14 -29z m466 3
c1 -7 -3 -13 -7 -13 -4 0 -8 15 -9 33 -2 26 0 28 7 12 5 -11 9 -26 9 -32z
m-601 20 c-15 -2 -42 -2 -60 0 -18 2 -6 4 27 4 33 0 48 -2 33 -4z m262 -58 c0
-7 2 -22 5 -32 3 -10 0 -6 -7 8 -7 14 -20 34 -28 44 -14 17 -14 17 8 6 12 -6
22 -18 22 -26z m314 -19 c-3 -14 -10 -26 -15 -26 -12 0 -11 -18 1 -33 6 -7 16
-20 23 -30 8 -11 28 -20 51 -22 45 -4 61 -15 23 -15 -22 0 -27 -5 -32 -37 -3
-21 -10 -46 -16 -55 -6 -12 -6 -18 1 -18 14 0 13 -47 -1 -56 -8 -4 -9 1 -4 15
4 13 1 28 -7 38 -10 13 -10 17 0 20 6 3 10 8 7 13 -3 4 0 21 6 38 10 28 7 34
-30 72 -39 40 -41 41 -63 26 -12 -9 -27 -16 -33 -16 -5 0 4 10 22 21 18 11 40
38 50 59 20 43 27 45 17 6z m-307 -68 c-3 -8 -6 -5 -6 6 -1 11 2 17 5 13 3 -3
4 -12 1 -19z m173 -30 c-19 -5 -40 -14 -46 -19 -7 -6 -21 -6 -35 0 -23 9 -22
10 8 10 17 1 35 6 38 11 3 6 21 10 38 9 l32 -1 -35 -10z m310 -24 c0 -2 -9 -4
-21 -4 -11 0 -18 4 -14 10 5 8 35 3 35 -6z m-530 -18 c0 -2 -7 -6 -15 -10 -8
-3 -15 -1 -15 4 0 6 7 10 15 10 8 0 15 -2 15 -4z m-102 -23 c-10 -2 -28 -2
-40 0 -13 2 -5 4 17 4 22 1 32 -1 23 -4z m59 1 c-3 -3 -12 -4 -19 -1 -8 3 -5
6 6 6 11 1 17 -2 13 -5z m-142 -14 c3 -5 -1 -10 -10 -10 -9 0 -13 5 -10 10 3
6 8 10 10 10 2 0 7 -4 10 -10z m-44 -33 c-10 -9 -11 -8 -5 6 3 10 9 15 12 12
3 -3 0 -11 -7 -18z m159 -20 c0 -13 -4 -27 -9 -32 -5 -6 -12 -19 -15 -30 -7
-27 0 22 9 55 5 21 5 22 -5 8 -6 -10 -18 -18 -27 -18 -11 0 -9 5 8 20 31 25
39 25 39 -3z m-70 3 c0 -5 -2 -10 -4 -10 -3 0 -8 5 -11 10 -3 6 -1 10 4 10 6
0 11 -4 11 -10z m510 -74 c0 -2 -7 -6 -15 -10 -8 -3 -15 -1 -15 4 0 6 7 10 15
10 8 0 15 -2 15 -4z m-450 -28 c0 -7 -5 -20 -10 -28 -7 -12 -12 -12 -22 -2 -9
9 -9 12 5 12 9 0 17 7 17 15 0 8 2 15 5 15 3 0 5 -6 5 -12z m338 -15 c-10 -2
-18 -9 -18 -15 0 -6 -3 -9 -6 -5 -10 10 6 27 24 26 15 -1 15 -2 0 -6z m-398
-16 c-8 -7 -24 -29 -34 -49 -11 -21 -23 -38 -28 -38 -5 0 -6 -10 -3 -21 5 -15
4 -19 -4 -15 -17 11 -14 24 14 60 14 18 25 43 25 54 0 16 6 22 23 22 19 -1 20
-2 7 -13z m466 -3 c7 11 16 17 19 14 3 -2 -4 -13 -15 -23 -16 -14 -22 -15 -35
-5 -8 7 -15 18 -15 24 0 6 8 2 16 -9 15 -20 15 -20 30 -1z m-99 -46 c-3 -7 -5
-2 -5 12 0 14 2 19 5 13 2 -7 2 -19 0 -25z m20 -45 c-3 -10 -5 -4 -5 12 0 17
2 24 5 18 2 -7 2 -21 0 -30z m13 -80 c-11 -17 -11 -17 -6 0 3 10 7 31 7 45 l2
27 4 -27 c2 -15 -1 -35 -7 -45z m-439 7 c5 0 9 -7 9 -15 0 -8 -8 -15 -17 -15
-14 0 -15 2 -4 9 9 6 10 11 2 15 -6 4 -10 15 -10 24 1 15 2 15 6 0 2 -10 9
-18 14 -18z m415 -56 c-23 -16 -40 -19 -31 -4 3 6 13 10 21 10 8 0 14 5 14 12
0 6 3 8 7 4 5 -4 -1 -14 -11 -22z m-74 -34 c-18 -11 -38 -20 -45 -20 -13 0 53
39 68 39 6 1 -5 -8 -23 -19z m-332 -1 c0 -7 -7 -17 -16 -24 -9 -6 -22 -29 -30
-51 -12 -35 -12 -40 4 -53 16 -13 16 -13 -1 -7 -10 3 -21 6 -23 6 -9 0 -4 39
6 45 6 3 10 17 10 30 0 14 9 29 20 35 11 6 18 15 15 21 -4 5 -1 9 4 9 6 0 11
-5 11 -11z m-283 -41 c31 -30 33 -31 33 -10 0 12 6 22 14 22 27 0 46 -12 46
-29 -1 -14 -2 -14 -11 2 -12 21 -39 23 -39 3 0 -27 -15 -24 -52 10 -21 19 -35
34 -31 34 4 0 22 -14 40 -32z m563 -12 c0 -12 -5 -7 -19 24 -11 24 -11 24 3 6
9 -11 16 -24 16 -30z m-56 12 c-34 -40 -42 -48 -49 -48 -10 0 48 68 59 69 5 1
1 -9 -10 -21z m41 -38 c-3 -5 1 -10 9 -10 10 0 16 -9 16 -22 l0 -23 -19 25
c-17 22 -19 40 -5 40 3 0 2 -4 -1 -10z m-407 -20 c11 -17 10 -26 -5 -51 -16
-26 -16 -31 -3 -40 13 -9 13 -10 0 -6 -18 4 -27 47 -10 47 6 0 10 12 8 28 -2
22 -7 27 -28 24 -19 -2 -22 0 -10 8 22 15 34 12 48 -10z m646 11 c4 -5 -2 -7
-12 -4 -20 5 -38 -12 -44 -42 -2 -11 -16 -24 -33 -30 -17 -5 -34 -15 -40 -21
-5 -7 -21 -15 -35 -18 l-25 -6 25 12 c14 7 31 21 38 30 7 10 24 18 38 18 16 0
24 6 24 17 0 34 50 68 64 44z m102 -31 c2 -34 1 -34 -3 -3 -3 23 -10 33 -26
37 -18 3 -18 4 3 3 21 -2 25 -7 26 -37z m-61 20 c-3 -5 -12 -10 -18 -10 -7 0
-6 4 3 10 19 12 23 12 15 0z m-421 -19 c-10 -10 -21 -16 -24 -14 -3 3 4 11 14
19 28 20 33 17 10 -5z m-224 -36 c-7 -8 -17 -15 -22 -15 -6 0 -5 7 2 15 7 8
17 15 22 15 6 0 5 -7 -2 -15z m145 5 c-27 -4 -53 -5 -57 -1 -4 3 19 7 50 8
l57 1 -50 -8z m265 -3 c0 -7 -9 -18 -20 -25 -11 -7 -20 -8 -20 -3 0 5 7 12 16
15 8 3 12 10 9 16 -3 5 -1 10 4 10 6 0 11 -6 11 -13z m410 -12 c7 -9 10 -18 7
-22 -4 -3 -9 2 -13 11 -5 13 -9 14 -20 5 -14 -11 -20 1 -7 14 10 11 19 8 33
-8z m-129 -8 c-6 -8 -7 -18 -3 -22 4 -5 1 -5 -6 -1 -10 6 -10 11 -1 22 6 8 14
14 16 14 3 0 0 -6 -6 -13z m-301 -62 c0 -8 -4 -16 -9 -19 -5 -3 -8 5 -7 18 1
25 16 26 16 1z m-219 -154 c4 -18 13 -37 21 -42 7 -5 8 -9 3 -9 -20 0 -35 24
-35 53 0 22 -4 28 -15 23 -8 -3 -15 -1 -15 5 0 6 8 9 17 7 10 -2 20 -17 24
-37z m225 27 c4 -7 3 -8 -4 -4 -7 4 -12 1 -12 -8 0 -9 -4 -16 -9 -16 -5 0 -7
9 -4 20 6 22 18 26 29 8z m-293 -18 c-13 -5 -23 -17 -24 -27 0 -11 -3 -13 -6
-5 -7 17 15 42 36 41 11 0 9 -3 -6 -9z m230 3 c-7 -2 -13 -13 -13 -23 0 -9 -7
-23 -15 -30 -19 -16 -19 -11 1 28 8 18 21 32 27 31 8 0 8 -2 0 -6z m-514 -12
c9 -6 2 -10 -23 -13 -34 -4 -44 1 -29 15 9 10 35 8 52 -2z m101 -31 c0 -24 8
-25 34 -5 11 8 26 15 33 15 20 0 34 -36 24 -62 -9 -22 -10 -21 -10 9 -1 41
-15 49 -49 27 -15 -10 -30 -18 -34 -16 -4 1 -4 -6 -1 -15 4 -11 3 -14 -6 -9
-8 5 -10 19 -6 37 7 33 -1 37 -21 12 -12 -16 -13 -16 -14 -1 0 16 13 26 38 27
6 1 12 -8 12 -19z m-66 -6 c3 -8 2 -12 -4 -9 -6 3 -10 10 -10 16 0 14 7 11 14
-7z m230 -34 c-5 -5 -16 -1 -24 8 -13 14 -12 15 3 9 10 -4 17 -2 18 6 0 8 2 8
6 -1 3 -8 1 -17 -3 -22z m179 8 c-13 -6 -23 -15 -23 -20 0 -4 -8 -8 -18 -8
-20 0 -56 -33 -46 -42 3 -4 -4 -9 -15 -13 -12 -3 -21 -11 -21 -16 0 -5 -7 -9
-16 -9 -18 0 -43 -27 -44 -47 0 -7 7 -13 15 -13 8 0 15 -5 15 -10 0 -7 -6 -7
-19 0 -25 13 -34 13 -26 0 4 -6 -6 -10 -22 -9 -16 0 -22 3 -13 6 20 8 50 43
50 59 0 6 13 17 29 22 31 11 81 59 81 78 0 7 8 10 18 7 10 -2 24 3 31 11 8 9
21 16 30 15 11 0 10 -3 -6 -11z m-218 -28 c-3 -5 -12 -10 -18 -10 -7 0 -6 4 3
10 19 12 23 12 15 0z m-79 -114 c3 -8 4 -22 2 -31 -2 -12 -7 -7 -15 14 -6 18
-7 31 -2 31 5 0 12 -6 15 -14z m-50 -11 c-11 -8 -31 -14 -45 -14 l-26 2 25 4
c14 3 29 9 35 14 5 5 14 9 20 9 5 0 1 -7 -9 -15z m-81 -25 c-3 -5 1 -24 10
-42 l16 -33 -21 24 c-21 25 -27 61 -9 61 5 0 7 -4 4 -10z m155 -25 c-7 -9 -15
-13 -19 -10 -3 3 1 10 9 15 21 14 24 12 10 -5z m250 -26 c-5 -18 -12 -34 -16
-38 -4 -3 -4 2 -1 12 4 10 7 27 7 38 0 10 4 19 9 19 6 0 6 -12 1 -31z m50 27
c0 -11 -19 -15 -25 -6 -3 5 1 10 9 10 9 0 16 -2 16 -4z m-448 -78 c-6 -6 -15
-8 -19 -4 -4 4 -1 11 7 16 19 12 27 3 12 -12z m363 -16 c18 2 31 0 29 -4 -12
-18 -124 2 -124 22 0 5 14 2 31 -7 16 -8 45 -13 64 -11z m135 18 c0 -5 -2 -10
-4 -10 -3 0 -8 5 -11 10 -3 6 -1 10 4 10 6 0 11 -4 11 -10z m122 -27 c-11 -16
-30 -37 -43 -48 l-24 -20 15 20 c8 11 21 24 28 28 6 4 12 14 12 22 0 11 10 20
28 24 2 1 -5 -11 -16 -26z m-91 -4 c16 -31 18 -67 4 -79 -8 -6 -24 -3 -50 10
-22 11 -32 20 -24 20 8 0 24 -7 35 -15 10 -8 21 -15 24 -15 11 0 10 61 0 80
-6 11 -8 20 -6 20 3 0 10 -10 17 -21z m-542 -51 c-5 -10 -19 -22 -32 -28 l-22
-11 23 17 c13 10 22 27 22 43 0 20 3 22 9 12 6 -9 6 -22 0 -33z m455 -48 c-5
-22 -2 -31 10 -36 26 -10 19 -38 -20 -75 -24 -23 -32 -26 -23 -11 8 12 17 22
21 22 4 0 12 9 18 21 9 16 8 25 -5 39 -12 13 -15 28 -11 45 9 35 17 31 10 -5z
m-506 -17 c-10 -2 -26 -2 -35 0 -10 3 -2 5 17 5 19 0 27 -2 18 -5z m-98 -32
c0 -4 -12 -20 -26 -34 -25 -25 -41 -97 -22 -97 5 0 8 -4 8 -10 0 -5 -6 -7 -13
-4 -24 9 -14 77 18 117 32 39 35 42 35 28z m-85 -111 c3 -5 -3 -10 -14 -10
-11 0 -27 -12 -37 -30 -10 -16 -24 -32 -32 -35 -7 -2 3 15 24 40 37 46 48 52
59 35z m635 -14 c0 -2 -7 -7 -16 -10 -8 -3 -12 -2 -9 4 6 10 25 14 25 6z m-67
-50 c-10 -14 -32 -33 -49 -42 -46 -25 -58 -50 -34 -67 10 -7 24 -25 29 -40 7
-19 15 -25 27 -20 14 5 14 3 3 -16 -13 -20 -31 -29 -27 -13 4 20 -17 64 -39
82 l-25 19 22 31 c12 16 27 30 33 30 7 0 26 15 42 34 34 39 47 40 18 2z m-676
2 c-3 -8 -6 -5 -6 6 -1 11 2 17 5 13 3 -3 4 -12 1 -19z m190 16 c-3 -3 -12 -4
-19 -1 -8 3 -5 6 6 6 11 1 17 -2 13 -5z m47 -13 c10 -11 16 -26 13 -33 -4 -9
-6 -7 -6 4 -1 9 -11 24 -23 32 -12 9 -18 16 -12 16 6 0 19 -9 28 -19z m-17
-48 c-18 -5 -18 -6 -1 -24 21 -23 12 -26 -10 -3 -22 22 -20 34 7 33 18 -1 18
-2 4 -6z m507 -121 c3 -5 -8 -6 -25 -4 -16 2 -29 6 -29 8 0 8 49 4 54 -4z m56
-51 c0 -12 3 -12 12 -3 7 7 16 12 21 12 5 0 2 -7 -7 -15 -19 -20 -36 -19 -36
2 0 9 -8 26 -17 37 -18 21 -18 21 5 2 12 -11 22 -26 22 -35z m352 16 c4 -7 7
-19 7 -27 -1 -13 -1 -13 -6 0 -6 17 -32 40 -45 40 -4 0 -8 -7 -8 -15 0 -8 -4
-15 -9 -15 -5 0 -7 9 -4 21 5 16 11 19 32 14 14 -4 29 -12 33 -18z m-920 -29
c-7 -7 -12 -8 -12 -2 0 6 3 14 7 17 3 4 9 5 12 2 2 -3 -1 -11 -7 -17z m822 -3
c-6 -16 -69 -21 -78 -7 -2 4 10 6 29 4 18 -2 36 1 39 7 10 16 16 13 10 -4z
m-114 -21 c19 3 29 2 25 -4 -9 -15 -64 -12 -81 4 -21 22 -17 32 6 11 14 -13
28 -16 50 -11z m-307 1 c-3 -9 -8 -14 -10 -11 -3 3 -2 9 2 15 9 16 15 13 8 -4z
m566 -59 c-3 -3 -11 5 -18 17 -13 21 -12 21 5 5 10 -10 16 -20 13 -22z m-516
-9 c-1 -20 2 -25 15 -20 14 4 14 3 3 -5 -10 -7 -26 -3 -56 14 -34 19 -49 22
-73 15 -22 -7 -29 -6 -26 2 7 18 70 19 84 2 16 -19 50 -20 50 -1 0 8 -5 17
-10 19 -6 3 -5 4 2 3 7 -2 12 -15 11 -29z m627 15 c0 -4 -12 -9 -27 -10 -16
-1 -33 -9 -39 -17 -13 -18 -30 -19 -40 -3 -5 8 -2 9 9 5 9 -3 19 -2 23 4 12
20 74 37 74 21z m10 -49 c-11 -17 -11 -17 -6 0 3 10 6 24 7 30 0 9 2 9 5 0 3
-7 0 -20 -6 -30z m-955 17 c3 -5 13 -6 22 -3 11 4 14 3 9 -6 -4 -7 -16 -9 -28
-5 -13 4 -24 -1 -34 -13 -13 -16 -13 -15 -3 10 13 28 24 34 34 17z m145 -5 c0
-2 -16 -12 -35 -21 -19 -9 -32 -20 -29 -25 10 -16 -33 -9 -47 8 -13 15 -12 15
7 5 18 -9 25 -8 39 8 9 10 27 21 39 23 11 2 22 5 24 6 1 0 2 -1 2 -4z m205
-25 c-3 -5 -12 -10 -18 -10 -7 0 -6 4 3 10 19 12 23 12 15 0z m-445 -37 c0 -5
-11 -9 -25 -9 -14 -1 -22 2 -19 7 6 11 44 12 44 2z m40 -13 c-24 -15 -36 -11
-14 4 10 8 21 12 24 10 2 -3 -2 -9 -10 -14z m149 -31 c-24 -15 -30 -10 -11 9
9 10 19 14 21 9 2 -5 -3 -13 -10 -18z m-44 -29 c-3 -5 -16 -15 -28 -21 -21
-10 -21 -9 2 10 25 23 36 27 26 11z m-38 -72 c-3 -8 -6 -5 -6 6 -1 11 2 17 5
13 3 -3 4 -12 1 -19z m163 -37 c-22 -12 -89 -21 -94 -12 -3 4 13 8 36 9 23 1
44 4 46 7 3 3 10 5 16 5 6 0 4 -4 -4 -9z m55 -46 c9 -24 11 -35 4 -28 -7 7
-18 29 -25 49 -16 47 -1 31 21 -21z m99 -120 c3 -9 12 -12 23 -8 15 6 16 5 3
-9 -12 -13 -16 -14 -23 -2 -4 7 -15 18 -25 23 -15 9 -15 10 -1 11 9 0 19 -7
23 -15z m586 8 c0 -5 -11 -9 -25 -9 -14 -1 -22 2 -19 7 6 11 44 12 44 2z
m-421 -35 c13 -10 19 -18 14 -18 -6 0 -16 7 -24 16 -7 9 -21 13 -33 10 -12 -3
-27 -2 -34 3 -8 5 0 8 20 8 18 0 44 -8 57 -19z m301 -17 c-11 -16 -19 -35 -18
-42 4 -15 -53 -32 -65 -20 -5 5 -3 9 4 8 35 -1 45 6 63 43 11 22 23 40 28 40
5 0 0 -13 -12 -29z m164 -20 c-5 -5 -44 30 -44 40 0 4 11 -2 24 -14 14 -12 23
-24 20 -26z m-409 1 c-3 -3 -11 0 -18 7 -9 10 -8 11 6 5 10 -3 15 -9 12 -12z
m-195 -7 c0 -8 -7 -15 -15 -15 -13 0 -14 3 -3 15 16 18 18 18 18 0z m264 -10
c11 -8 16 -15 10 -15 -5 0 -18 7 -28 15 -11 8 -16 15 -10 15 5 0 18 -7 28 -15z
m-320 -20 c-10 -8 -28 -14 -39 -15 -18 0 -17 2 5 14 35 19 60 20 34 1z m-59
-35 c3 -5 1 -10 -4 -10 -6 0 -20 -9 -31 -20 -31 -31 -24 -74 14 -81 11 -2 21
-10 22 -17 1 -7 0 -8 -3 -2 -2 5 -13 10 -23 10 -10 0 -25 12 -35 26 -18 27
-19 24 30 90 12 17 22 18 30 4z m5 -194 c0 -26 -23 -56 -43 -56 -6 0 -1 7 11
16 12 8 22 26 22 40 0 13 2 24 5 24 3 0 5 -11 5 -24z m-132 -53 c-17 -3 -31
-15 -42 -36 -8 -18 -16 -26 -16 -19 0 28 32 62 59 61 l26 -2 -27 -4z m-72 -81
c-10 -2 -22 0 -28 6 -6 6 0 7 19 4 21 -5 23 -7 9 -10z m589 -222 c-3 -5 -11
-10 -16 -10 -6 0 -7 5 -4 10 3 6 11 10 16 10 6 0 7 -4 4 -10z m-35 -15 c0 -2
-10 -10 -22 -16 -21 -11 -22 -11 -9 4 13 16 31 23 31 12z m-335 -35 c3 -5 -1
-10 -10 -10 -9 0 -13 5 -10 10 3 6 8 10 10 10 2 0 7 -4 10 -10z m-52 -7 c-13
-2 -23 -12 -23 -20 0 -9 -3 -14 -6 -10 -13 13 6 37 28 36 l23 -2 -22 -4z m315
-8 c-11 -11 -68 -23 -68 -15 0 5 8 11 18 13 25 7 56 8 50 2z m-233 -33 c-3 -3
-11 0 -18 7 -9 10 -8 11 6 5 10 -3 15 -9 12 -12z m-131 -2 c-7 -7 -19 -7 -35
-1 -23 9 -22 10 11 10 23 1 31 -2 24 -9z m278 -20 c-22 -21 -96 -28 -106 -11
-4 5 11 7 33 4 27 -4 46 0 62 11 32 22 37 20 11 -4z"/>
</g>
</svg>
